<?xml version="1.0" encoding="UTF-8" standalone="no"?>
<svg
   xmlns:dc="http://purl.org/dc/elements/1.1/"
   xmlns:cc="http://creativecommons.org/ns#"
   xmlns:rdf="http://www.w3.org/1999/02/22-rdf-syntax-ns#"
   xmlns:svg="http://www.w3.org/2000/svg"
   xmlns="http://www.w3.org/2000/svg"
   viewBox="0 300 1056 200"
   height="400"
   width="1056"
   xml:space="preserve"
   id="svg2"
   version="1.1"><metadata
     id="metadata8"><rdf:RDF><cc:Work
         rdf:about=""><dc:format>image/svg+xml</dc:format><dc:type
           rdf:resource="http://purl.org/dc/dcmitype/StillImage" /></cc:Work></rdf:RDF></metadata><defs
     id="defs6"><clipPath
       id="clipPath18"
       clipPathUnits="userSpaceOnUse"><path
         id="path16"
         d="M 0,612 H 792 V 0 H 0 Z" /></clipPath></defs><g
     transform="matrix(1.3333333,0,0,-1.3333333,0,816)"
     id="g10"><g
       id="g12"><g
         clip-path="url(#clipPath18)"
         id="g14"><g
           transform="translate(138.8848,304.5293)"
           id="g20"><path
             id="path22"
             style="fill:#ed1c24;fill-opacity:1;fill-rule:nonzero;stroke:none"
             d="m 0,0 c 0,5.234 -0.993,10.167 -2.978,14.801 -1.985,4.633 -4.709,8.678 -8.168,12.139 -3.46,3.458 -7.506,6.181 -12.139,8.167 -4.632,1.986 -9.565,2.978 -14.8,2.978 -5.234,0 -10.168,-0.992 -14.801,-2.978 -4.634,-1.986 -8.678,-4.709 -12.138,-8.167 -3.46,-3.461 -6.182,-7.506 -8.168,-12.139 -1.985,-4.634 -2.977,-9.567 -2.977,-14.801 0,-5.294 0.992,-10.258 2.977,-14.89 1.986,-4.635 4.708,-8.679 8.168,-12.137 3.46,-3.461 7.504,-6.184 12.138,-8.17 4.633,-1.985 9.567,-2.977 14.801,-2.977 5.235,0 10.168,0.992 14.8,2.977 4.633,1.986 8.679,4.709 12.139,8.17 3.459,3.458 6.183,7.502 8.168,12.137 C -0.993,-10.258 0,-5.294 0,0 M -76.08,44.222 V 21.118 c 1.505,2.889 3.189,5.429 5.055,7.627 1.864,2.195 3.836,4.105 5.911,5.729 2.076,1.626 4.181,2.993 6.318,4.107 2.134,1.113 4.195,2.031 6.181,2.753 4.694,1.684 9.566,2.646 14.62,2.888 6.558,0 12.53,-1.204 17.915,-3.61 5.384,-2.407 10.017,-5.656 13.898,-9.747 3.88,-4.092 6.889,-8.815 9.025,-14.169 2.134,-5.355 3.203,-10.95 3.203,-16.786 0,-5.897 -1.069,-11.506 -3.203,-16.831 -2.136,-5.326 -5.131,-10.004 -8.98,-14.033 -3.851,-4.033 -8.469,-7.235 -13.853,-9.612 -5.385,-2.376 -11.326,-3.563 -17.823,-3.563 -2.708,0.117 -5.145,0.403 -7.312,0.856 -2.166,0.452 -4.618,1.129 -7.354,2.03 -2.739,0.902 -5.521,2.181 -8.348,3.835 -2.829,1.655 -5.582,3.777 -8.257,6.363 -2.679,2.586 -5.009,5.744 -6.996,9.477 v -67.686 h -6.136 V 44.222 Z" /></g><g
           transform="translate(162.3472,349.3828)"
           id="g24"><path
             id="path26"
             style="fill:#ed1c24;fill-opacity:1;fill-rule:nonzero;stroke:none"
             d="m 0,0 v -44.716 c 0,-5.888 1.037,-11.224 3.109,-16 2.073,-4.778 4.852,-8.881 8.338,-12.305 3.486,-3.426 7.542,-6.071 12.17,-7.932 4.628,-1.867 9.464,-2.796 14.512,-2.796 5.23,0 10.187,1.081 14.874,3.244 4.688,2.162 8.789,4.898 12.304,8.203 3.515,3.306 6.295,6.957 8.338,10.954 2.043,3.995 3.065,7.828 3.065,11.494 V 0 h 6.498 V -89.435 H 76.71 v 22.02 c -1.625,-2.767 -3.429,-5.204 -5.415,-7.31 -1.985,-2.106 -4.031,-3.925 -6.137,-5.459 -2.106,-1.537 -4.227,-2.843 -6.362,-3.925 -2.137,-1.085 -4.196,-1.956 -6.182,-2.619 -4.634,-1.626 -9.385,-2.527 -14.26,-2.707 -7.159,0 -13.522,1.292 -19.086,3.881 -5.566,2.584 -10.259,5.985 -14.08,10.197 -3.82,4.211 -6.723,8.98 -8.708,14.304 -1.984,5.325 -2.978,10.756 -2.978,16.29 L -6.406,0 Z" /></g><g
           transform="translate(262.4297,345.4121)"
           id="g28"><path
             id="path30"
             style="fill:#ed1c24;fill-opacity:1;fill-rule:nonzero;stroke:none"
             d="m 0,0 v -21.389 c 1.865,3.128 3.985,5.835 6.362,8.122 2.377,2.286 4.799,4.211 7.266,5.777 2.466,1.563 4.934,2.826 7.4,3.79 2.467,0.962 4.767,1.715 6.905,2.256 2.134,0.541 4.016,0.902 5.64,1.083 1.624,0.18 2.827,0.3 3.609,0.361 V -5.957 C 32.729,-6.078 28.728,-6.724 25.18,-7.897 21.629,-9.07 18.486,-10.574 15.749,-12.41 13.011,-14.245 10.65,-16.32 8.665,-18.636 6.679,-20.952 5.04,-23.27 3.746,-25.585 2.451,-27.901 1.503,-30.128 0.903,-32.264 0.301,-34.4 0,-36.22 0,-37.724 v -47.74 H -6.045 V 0 Z" /></g><g
           transform="translate(383.2715,310.3062)"
           id="g32"><path
             id="path34"
             style="fill:#ed1c24;fill-opacity:1;fill-rule:nonzero;stroke:none"
             d="m 0,0 c -0.903,3.958 -2.135,7.454 -3.701,10.484 -1.565,3.028 -3.324,5.655 -5.278,7.873 -1.957,2.221 -4.017,4.095 -6.183,5.624 -2.165,1.531 -4.332,2.806 -6.497,3.826 -5.055,2.339 -10.501,3.659 -16.336,3.96 -5.836,-0.301 -11.28,-1.621 -16.335,-3.96 -2.165,-1.02 -4.347,-2.295 -6.543,-3.826 -2.197,-1.529 -4.257,-3.403 -6.182,-5.624 -1.926,-2.218 -3.67,-4.845 -5.233,-7.873 C -73.854,7.454 -75.086,3.958 -75.989,0 Z m -76.169,-5.686 c 0,-1.144 0.21,-2.888 0.631,-5.234 0.42,-2.348 1.158,-4.964 2.211,-7.853 1.052,-2.888 2.496,-5.866 4.333,-8.935 1.834,-3.067 4.165,-5.85 6.994,-8.347 2.827,-2.498 6.227,-4.556 10.197,-6.182 3.972,-1.625 8.633,-2.435 13.988,-2.435 5.294,0.238 10.258,1.262 14.892,3.069 1.985,0.779 4.001,1.759 6.048,2.933 2.043,1.17 3.984,2.63 5.819,4.374 1.835,1.746 3.52,3.806 5.055,6.183 1.531,2.377 2.782,5.1 3.745,8.168 H 3.79 c -1.203,-3.79 -2.708,-7.146 -4.512,-10.063 -1.805,-2.918 -3.791,-5.446 -5.956,-7.581 -2.167,-2.138 -4.454,-3.925 -6.859,-5.369 -2.406,-1.445 -4.754,-2.65 -7.04,-3.611 -5.475,-2.226 -11.251,-3.489 -17.328,-3.789 -5.054,0 -9.643,0.661 -13.762,1.985 -4.122,1.324 -7.808,3.114 -11.056,5.37 -3.249,2.255 -6.077,4.886 -8.484,7.896 -2.406,3.009 -4.391,6.166 -5.955,9.477 -1.566,3.307 -2.723,6.677 -3.475,10.107 -0.752,3.429 -1.128,6.707 -1.128,9.837 0,2.586 0.376,5.444 1.128,8.574 0.752,3.127 1.896,6.286 3.429,9.476 1.535,3.188 3.489,6.286 5.867,9.295 2.376,3.008 5.174,5.67 8.393,7.987 3.218,2.316 6.904,4.166 11.055,5.55 4.151,1.384 8.783,2.076 13.898,2.076 4.692,0 9.025,-0.602 12.995,-1.805 3.973,-1.205 7.583,-2.858 10.832,-4.964 3.248,-2.107 6.105,-4.557 8.572,-7.355 C -3.13,20.35 -1.054,17.357 0.631,14.169 2.314,10.979 3.61,7.685 4.512,4.286 5.415,0.887 5.925,-2.437 6.046,-5.686 Z" /></g><path
           id="path36"
           style="fill:#2e3192;fill-opacity:1;fill-rule:nonzero;stroke:none"
           d="m 463.769,259.948 h -6.497 v 90.427 h 6.497 z m -8.393,127.97 c 0,1.503 0.542,2.782 1.623,3.836 1.083,1.052 2.377,1.579 3.882,1.579 1.503,0 2.782,-0.527 3.836,-1.579 1.053,-1.054 1.578,-2.333 1.578,-3.836 0,-1.505 -0.525,-2.783 -1.578,-3.835 -1.054,-1.053 -2.333,-1.579 -3.836,-1.579 -1.505,0 -2.799,0.526 -3.882,1.579 -1.081,1.052 -1.623,2.33 -1.623,3.835" /><g
           transform="translate(477.3066,349.3828)"
           id="g38"><path
             id="path40"
             style="fill:#2e3192;fill-opacity:1;fill-rule:nonzero;stroke:none"
             d="m 0,0 h 6.497 v -19.313 h 1.894 c 0,0.24 0.344,0.872 1.037,1.896 0.69,1.021 1.741,2.255 3.153,3.699 1.414,1.444 3.139,2.964 5.184,4.557 2.043,1.595 4.402,3.069 7.077,4.423 2.673,1.354 5.679,2.482 9.014,3.384 C 37.192,-0.451 40.813,0 44.721,0 c 5.887,0 11.537,-1.127 16.946,-3.384 5.409,-2.257 10.17,-5.369 14.288,-9.341 4.118,-3.97 7.395,-8.618 9.828,-13.943 2.434,-5.325 3.651,-11.055 3.651,-17.191 v -45.576 h -6.319 v 45.665 c 0,4.151 -0.779,8.453 -2.344,12.906 -1.561,4.452 -3.934,8.513 -7.12,12.183 -3.185,3.669 -7.166,6.678 -11.942,9.024 -4.777,2.347 -10.414,3.52 -16.902,3.52 -4.328,0 -8.279,-0.571 -11.856,-1.715 -3.575,-1.143 -6.775,-2.632 -9.599,-4.466 -2.825,-1.837 -5.304,-3.942 -7.436,-6.318 -2.132,-2.378 -3.906,-4.814 -5.319,-7.31 -1.412,-2.497 -2.463,-4.918 -3.155,-7.265 -0.691,-2.346 -1.036,-4.452 -1.036,-6.317 v -49.907 h -6.499 z" /></g><g
           transform="translate(659.4248,310.3062)"
           id="g42"><path
             id="path44"
             style="fill:#2e3192;fill-opacity:1;fill-rule:nonzero;stroke:none"
             d="m 0,0 c -0.903,3.958 -2.138,7.454 -3.701,10.484 -1.566,3.028 -3.326,5.655 -5.28,7.873 -1.957,2.221 -4.015,4.095 -6.181,5.624 -2.167,1.531 -4.333,2.806 -6.498,3.826 -5.055,2.339 -10.5,3.659 -16.336,3.96 -5.835,-0.301 -11.281,-1.621 -16.336,-3.96 -2.165,-1.02 -4.346,-2.295 -6.541,-3.826 -2.199,-1.529 -4.258,-3.403 -6.184,-5.624 -1.925,-2.218 -3.669,-4.845 -5.234,-7.873 -1.564,-3.03 -2.797,-6.526 -3.7,-10.484 z m -76.171,-5.686 c 0,-1.144 0.21,-2.888 0.631,-5.234 0.422,-2.348 1.159,-4.964 2.212,-7.853 1.053,-2.888 2.496,-5.866 4.333,-8.935 1.834,-3.067 4.164,-5.85 6.993,-8.347 2.826,-2.498 6.228,-4.556 10.197,-6.182 3.973,-1.625 8.634,-2.435 13.99,-2.435 5.293,0.238 10.257,1.262 14.89,3.069 1.986,0.779 4.002,1.759 6.048,2.933 2.045,1.17 3.984,2.63 5.819,4.374 1.834,1.746 3.521,3.806 5.054,6.183 1.535,2.377 2.784,5.1 3.747,8.168 H 3.79 c -1.205,-3.79 -2.709,-7.146 -4.513,-10.063 -1.804,-2.918 -3.791,-5.446 -5.956,-7.581 -2.166,-2.138 -4.454,-3.925 -6.86,-5.369 -2.406,-1.445 -4.753,-2.65 -7.039,-3.611 -5.475,-2.226 -11.25,-3.489 -17.326,-3.789 -5.055,0 -9.644,0.661 -13.765,1.985 -4.122,1.324 -7.807,3.114 -11.055,5.37 -3.249,2.255 -6.077,4.886 -8.483,7.896 -2.406,3.009 -4.393,6.166 -5.957,9.477 -1.565,3.307 -2.722,6.677 -3.475,10.107 -0.752,3.429 -1.128,6.707 -1.128,9.837 0,2.586 0.376,5.444 1.128,8.574 0.753,3.127 1.897,6.286 3.431,9.476 1.534,3.188 3.487,6.286 5.865,9.295 2.376,3.008 5.175,5.67 8.393,7.987 3.219,2.316 6.904,4.166 11.054,5.55 4.153,1.384 8.786,2.076 13.9,2.076 4.693,0 9.026,-0.602 12.996,-1.805 3.971,-1.205 7.582,-2.858 10.83,-4.964 3.249,-2.107 6.106,-4.557 8.574,-7.355 2.465,-2.798 4.541,-5.791 6.228,-8.979 1.681,-3.19 2.976,-6.484 3.881,-9.883 0.901,-3.399 1.412,-6.723 1.532,-9.972 z" /></g><g
           transform="translate(444.458,254.5059)"
           id="g46"><path
             id="path48"
             style="fill:#e9e9e9;fill-opacity:1;fill-rule:nonzero;stroke:none"
             d="m 0,0 v -0.143 c -6.5,0.122 -12.125,1.4 -16.878,3.836 -4.753,2.438 -8.678,5.536 -11.777,9.297 -3.101,3.759 -5.401,7.926 -6.903,12.5 -1.504,4.572 -2.256,9.054 -2.256,13.447 V 54.82 66.146 93.343 c 0,5.895 0.013,12.603 0.045,20.124 0.028,7.521 0.045,15.975 0.045,25.361 h -6.498 l -0.09,-99.802 c 0,-5.596 1.023,-11.086 3.069,-16.468 2.043,-5.386 4.992,-10.199 8.845,-14.443 3.847,-4.24 8.496,-7.67 13.942,-10.287 C -13.013,-4.791 -6.86,-6.159 0,-6.279 H 230.437 L 221.025,0 Z" /></g><g
           transform="translate(696.2197,248.2266)"
           id="g50"><path
             id="path52"
             style="fill:#2e3192;fill-opacity:1;fill-rule:nonzero;stroke:none"
             d="m 0,0 h 34.354 13.929 l 8.827,6.199 c 0,0 -11.573,6.62 -40.08,6.62 -26.856,0 -40.077,-6.62 -40.077,-6.62 L -14.22,0 Z" /></g></g></g></g></svg>